# xmcd
#
# Track frame offsets:
#	150
#	18117
#	39530
#	59411
#	77662
#	94485
#	112325
#	135229
#	152293
#	172388
#	192691
#	205243
#	219903
#	233670
#	248845
#	268417
#	285653
#	303185
#	321078
#
# Disc length: 4630
#
# Revision: 3
# Processed by: cddbd v1.5.1PL0 Copyright (c) Steve Scherf et al.
# Submitted via: CDex 1.50beta10
# Normalized: r2:DSETVAR1,TDELIM( - )
#
DISCID=12121413
DTITLE=Various Artist - Meu Mozão
DYEAR=2004
DGENRE=Country
TTITLE0=Mato Grosso e Matias - Tentei te Esquecer
TTITLE1=Bruno e Marrone - Sera
TTITLE2=Dois a Um - Amor perfeito
TTITLE3=Bruno e Marrone - Sonhos Perdidos
TTITLE4=Bruno e Marrone - Deixa
TTITLE5=Bruno e Marrone - Sai de Mim
TTITLE6=Tiziano Ferro - Imbranato
TTITLE7=Aviões do Forro - Ligação Urbana
TTITLE8=Rick e Rener - Só Pensando Em Você
TTITLE9=Rick e Renner - Filha
TTITLE10=Chitãozinho e Xororó - Rebola
TTITLE11=Arriba a Saia - Libera o Tonho
TTITLE12=Aviões do Forró - Chama a patricinha pra dançar
TTITLE13=Leonardo - Brincadeira Tem Hora
TTITLE14=Leonardo - Eu sei que te perdi
TTITLE15=Leonardo - Quero Acender teu fogo
TTITLE16=Renato Fechine - Bebe Negão
TTITLE17=TATU - Not Gonna Get US (REMIX)
TTITLE18=Lasgo - I Wonder
EXTD=YEAR: 2004
EXTT0=
EXTT1=
EXTT2=
EXTT3=
EXTT4=
EXTT5=
EXTT6=
EXTT7=
EXTT8=
EXTT9=
EXTT10=
EXTT11=
EXTT12=
EXTT13=
EXTT14=
EXTT15=
EXTT16=
EXTT17=
EXTT18=
PLAYORDER=
